
<svg id="Layer_1" data-name="Layer 1" xmlns="http://www.w3.org/2000/svg" width="1985" height="220.6" viewBox="0 0 1985 220.6">
  <defs>
    <style>
      .cls-1 {
        fill: #1a1a1a;
      }

      .cls-2 {
        fill: #c1272d;
      }

      .cls-3 {
        fill: #fff;
        opacity: 0.08;
      }

      .cls-3, .cls-4 {
        isolation: isolate;
      }

      .cls-4 {
        opacity: 0.1;
      }
    </style>
  </defs>
  <g id="Top_Right" data-name="Top Right">
    <path class="cls-1" d="M1579.4,37.3a5.22,5.22,0,0,0,.1,7.4l71,69.2a5.23,5.23,0,1,0,7.5-7.3l-71.1-69.4A5.44,5.44,0,0,0,1579.4,37.3Z"/>
    <circle class="cls-2" cx="1613.1" cy="70.3" r="53"/>
    <ellipse class="cls-3" cx="1578.47" cy="49.7" rx="12.4" ry="5.2" transform="translate(793.05 1419.79) rotate(-61.98)"/>
    <path class="cls-4" d="M1649.2,43.1a63.46,63.46,0,0,1-50.6,74.2,74.19,74.19,0,0,1-7.9,1,52.92,52.92,0,0,0,53.2-91A61.22,61.22,0,0,1,1649.2,43.1Z"/>
  </g>
  <g id="Top_Right-2" data-name="Top Right">
    <path class="cls-1" d="M1329.1,111.6a5.1,5.1,0,0,0,5.3,5.1l99.1-1.2a5.2,5.2,0,1,0,.2-10.4l-99.4,1.2A5.25,5.25,0,0,0,1329.1,111.6Z"/>
    <circle class="cls-2" cx="1376.3" cy="111" r="53"/>
    <ellipse class="cls-3" cx="1337.36" cy="120.86" rx="5.2" ry="12.4" transform="translate(23 395.78) rotate(-16.98)"/>
    <path class="cls-4" d="M1382.6,66.3a63.4,63.4,0,0,1,16.7,88.2,75.71,75.71,0,0,1-4.9,6.3,53,53,0,0,0-26.9-102.1A61.17,61.17,0,0,1,1382.6,66.3Z"/>
  </g>
  <g id="Top_Right-3" data-name="Top Right">
    <path class="cls-1" d="M1140.1,185.1a5.22,5.22,0,0,0,7.4-.1l69.2-71a5.23,5.23,0,1,0-7.3-7.5L1140,177.6A5.34,5.34,0,0,0,1140.1,185.1Z"/>
    <circle class="cls-2" cx="1173" cy="151.3" r="53"/>
    <ellipse class="cls-3" cx="1152.42" cy="185.88" rx="5.2" ry="12.4" transform="translate(446.93 1115.89) rotate(-61.98)"/>
    <path class="cls-4" d="M1145.8,115.2a63.46,63.46,0,0,1,74.2,50.6,74.19,74.19,0,0,1,1,7.9,52.92,52.92,0,0,0-91-53.2A63.89,63.89,0,0,1,1145.8,115.2Z"/>
  </g>
  <g>
    <path class="cls-1" d="M993.8,214.7a5.1,5.1,0,0,0,5.1-5.3l-1.2-99.1a5.2,5.2,0,1,0-10.4-.2l1.2,99.4A5.13,5.13,0,0,0,993.8,214.7Z"/>
    <circle class="cls-2" cx="993.2" cy="167.6" r="53" transform="translate(668.67 1121.13) rotate(-80.78)"/>
    <ellipse class="cls-3" cx="1003.12" cy="206.5" rx="12.4" ry="5.2" transform="translate(-16.58 301.91) rotate(-16.98)"/>
    <path class="cls-4" d="M948.5,161.3a63.4,63.4,0,0,1,88.2-16.7,75.71,75.71,0,0,1,6.3,4.9,53,53,0,0,0-102.1,26.9A59.48,59.48,0,0,1,948.5,161.3Z"/>
  </g>
  <g id="Top_Right-4" data-name="Top Right">
    <path class="cls-1" d="M846.7,183.2a5.22,5.22,0,0,0-.1-7.4l-71-69.2a5.23,5.23,0,1,0-7.5,7.3l71.1,69.4A5.34,5.34,0,0,0,846.7,183.2Z"/>
    <circle class="cls-2" cx="812.9" cy="150.3" r="53"/>
    <ellipse class="cls-3" cx="847.53" cy="170.81" rx="12.4" ry="5.2" transform="translate(298.58 838.75) rotate(-61.98)"/>
    <path class="cls-4" d="M776.9,177.5a63.46,63.46,0,0,1,50.6-74.2,74.19,74.19,0,0,1,7.9-1,52.92,52.92,0,0,0-53.2,91A55.52,55.52,0,0,1,776.9,177.5Z"/>
  </g>
  <g id="Top_Right-5" data-name="Top Right">
    <path class="cls-1" d="M655.8,109a5.1,5.1,0,0,0-5.3-5.1l-99.1,1.2a5.2,5.2,0,0,0-.2,10.4l99.4-1.2A5.18,5.18,0,0,0,655.8,109Z"/>
    <circle class="cls-2" cx="608.7" cy="109.6" r="53"/>
    <ellipse class="cls-3" cx="647.58" cy="99.64" rx="5.2" ry="12.4" transform="translate(-0.87 193.44) rotate(-16.98)"/>
    <path class="cls-4" d="M602.4,154.3a63.4,63.4,0,0,1-16.7-88.2,75.71,75.71,0,0,1,4.9-6.3,53,53,0,0,0,26.9,102.1A66.84,66.84,0,0,1,602.4,154.3Z"/>
  </g>
  <g id="Top_Right-6" data-name="Top Right">
    <path class="cls-1" d="M403.8,35.5a5.22,5.22,0,0,0-7.4.1l-69.2,71a5.23,5.23,0,1,0,7.3,7.5L403.9,43A5.44,5.44,0,0,0,403.8,35.5Z"/>
    <circle class="cls-2" cx="370.8" cy="69.3" r="53"/>
    <ellipse class="cls-3" cx="391.41" cy="34.67" rx="5.2" ry="12.4" transform="translate(176.92 363.91) rotate(-61.98)"/>
    <path class="cls-4" d="M398,105.3a63.46,63.46,0,0,1-74.2-50.6,74.19,74.19,0,0,1-1-7.9,52.92,52.92,0,0,0,91,53.2A54.5,54.5,0,0,1,398,105.3Z"/>
  </g>
  <g id="Top_Right-7" data-name="Top Right">
    <path class="cls-1" d="M1873.4,5.8a5.1,5.1,0,0,0-5.1,5.3l1.2,99.1a5.2,5.2,0,0,0,10.4.2L1878.7,11A5.31,5.31,0,0,0,1873.4,5.8Z"/>
    <circle class="cls-2" cx="1874" cy="53" r="53"/>
    <ellipse class="cls-3" cx="1864.11" cy="13.99" rx="12.4" ry="5.2" transform="translate(77.16 544.94) rotate(-16.98)"/>
    <path class="cls-4" d="M1918.7,59.3A63.4,63.4,0,0,1,1830.5,76a75.71,75.71,0,0,1-6.3-4.9,53,53,0,0,0,102.1-26.9A64.84,64.84,0,0,1,1918.7,59.3Z"/>
  </g>
  <g>
    <circle class="cls-2" cx="110.3" cy="110.3" r="53"/>
    <ellipse class="cls-3" cx="130.83" cy="75.72" rx="5.2" ry="12.4" transform="translate(2.52 155.64) rotate(-61.98)"/>
    <path class="cls-4" d="M137.5,146.3A63.46,63.46,0,0,1,63.3,95.7a74.19,74.19,0,0,1-1-7.9,52.92,52.92,0,0,0,91,53.2A55.52,55.52,0,0,1,137.5,146.3Z"/>
  </g>
</svg>
